# xmcd CD database file
#
# Track frame offsets:
#	187
#	15837
#	46487
#	64837
#	83025
#	105037
#	129400
#	155500
#	183912
#	203512
#	217387
#	240812
#	284837
#	306437
#	323900
#
# Disc length: 4491 seconds
#
# Revision: 0
# Processed by: cddbd v1.5PL3 Copyright (c) Steve Scherf et al.
# Submitted via: CDex 1.50beta9
#
DISCID=c711890f
DTITLE=Various Artist - BOW WOW JAZZ
DYEAR=1900
DGENRE=Jazz
TTITLE0=THE CAT-JIMMY SMITH
TTITLE1=FOUR ON SIX-WES MONTGOMERY
TTITLE2=JARDU-CLIFFORD BROWN
TTITLE3=LULLABY OF BIRDLAND-SARAH VAUGHAN
TTITLE4=NIGHT TRAIN-OSCAR PETERSON
TTITLE5=THE GIRL FROM IPANEMA-STAN GETZ and JOAO GILBERTO
TTITLE6=A DAY IN THE LIFE-WES MONTGOMERY
TTITLE7=AUTUMN LEAVES-BILL EVANS
TTITLE8=YOU'D BE SO NICE TO COME HOME TO-HELEN MERRILL
TTITLE9=NOW'S THE TIME-CHARLIE PARKER
TTITLE10=KILLER JOE-QUINCY JONES
TTITLE11=BILLIE'S BOUNCE-STAN GETZ and J.J.JOHNSON
TTITLE12=MACK THE KNIFE-ELLA FITZGERALD
TTITLE13=APRIL IN PARIS-COUNT BASIE
TTITLE14=WAVE-ANTONIO CARLAS JOBIN
EXTD=
EXTT0=
EXTT1=
EXTT2=
EXTT3=
EXTT4=
EXTT5=
EXTT6=
EXTT7=
EXTT8=
EXTT9=
EXTT10=
EXTT11=
EXTT12=
EXTT13=
EXTT14=
PLAYORDER=
